<mxfile host="app.diagrams.net" modified="2024-02-27T08:31:23.870Z" agent="Mozilla/5.0 (Macintosh; Intel Mac OS X 10_15_7) AppleWebKit/537.36 (KHTML, like Gecko) Chrome/122.0.0.0 Safari/537.36" etag="WqunE-A5mMsFb_5UaKTH" version="23.1.7" type="github">
  <diagram name="第 1 页" id="vBj44yjuVVsO47nY4Is8">
    <mxGraphModel dx="1026" dy="663" grid="1" gridSize="10" guides="1" tooltips="1" connect="1" arrows="1" fold="1" page="1" pageScale="1" pageWidth="827" pageHeight="1169" math="0" shadow="0">
      <root>
        <mxCell id="0" />
        <mxCell id="1" parent="0" />
        <mxCell id="1ITKOEGX5XHPUvmLvWds-3" value="" style="edgeStyle=orthogonalEdgeStyle;rounded=0;orthogonalLoop=1;jettySize=auto;html=1;" edge="1" parent="1" target="1ITKOEGX5XHPUvmLvWds-2">
          <mxGeometry relative="1" as="geometry">
            <mxPoint x="400" y="160" as="sourcePoint" />
          </mxGeometry>
        </mxCell>
        <mxCell id="1ITKOEGX5XHPUvmLvWds-6" value="" style="edgeStyle=orthogonalEdgeStyle;rounded=0;orthogonalLoop=1;jettySize=auto;html=1;" edge="1" parent="1" source="1ITKOEGX5XHPUvmLvWds-2" target="1ITKOEGX5XHPUvmLvWds-5">
          <mxGeometry relative="1" as="geometry" />
        </mxCell>
        <mxCell id="1ITKOEGX5XHPUvmLvWds-2" value="根据channel把order转化成通用的commonOrder" style="rounded=1;whiteSpace=wrap;html=1;" vertex="1" parent="1">
          <mxGeometry x="340" y="220" width="120" height="60" as="geometry" />
        </mxCell>
        <mxCell id="1ITKOEGX5XHPUvmLvWds-8" value="" style="edgeStyle=orthogonalEdgeStyle;rounded=0;orthogonalLoop=1;jettySize=auto;html=1;" edge="1" parent="1" source="1ITKOEGX5XHPUvmLvWds-5" target="1ITKOEGX5XHPUvmLvWds-7">
          <mxGeometry relative="1" as="geometry" />
        </mxCell>
        <mxCell id="1ITKOEGX5XHPUvmLvWds-5" value="会否存在旧记录" style="rhombus;whiteSpace=wrap;html=1;" vertex="1" parent="1">
          <mxGeometry x="360" y="340" width="80" height="80" as="geometry" />
        </mxCell>
        <mxCell id="1ITKOEGX5XHPUvmLvWds-10" style="edgeStyle=orthogonalEdgeStyle;rounded=0;orthogonalLoop=1;jettySize=auto;html=1;exitX=1;exitY=0.5;exitDx=0;exitDy=0;" edge="1" parent="1" source="1ITKOEGX5XHPUvmLvWds-7" target="1ITKOEGX5XHPUvmLvWds-9">
          <mxGeometry relative="1" as="geometry" />
        </mxCell>
        <mxCell id="1ITKOEGX5XHPUvmLvWds-7" value="插入记录：订单详情(按日分表),订单索引表,订单id映射表" style="whiteSpace=wrap;html=1;" vertex="1" parent="1">
          <mxGeometry x="500" y="350" width="120" height="60" as="geometry" />
        </mxCell>
        <mxCell id="1ITKOEGX5XHPUvmLvWds-9" value="mq(分销)" style="shape=cylinder3;whiteSpace=wrap;html=1;boundedLbl=1;backgroundOutline=1;size=15;" vertex="1" parent="1">
          <mxGeometry x="710" y="340" width="60" height="80" as="geometry" />
        </mxCell>
        <mxCell id="1ITKOEGX5XHPUvmLvWds-11" value="mq(订单)" style="shape=cylinder3;whiteSpace=wrap;html=1;boundedLbl=1;backgroundOutline=1;size=15;" vertex="1" parent="1">
          <mxGeometry x="370" y="80" width="60" height="80" as="geometry" />
        </mxCell>
      </root>
    </mxGraphModel>
  </diagram>
</mxfile>
